<svg xmlns="http://www.w3.org/2000/svg" width="28" height="28" viewBox="0 0 28 28" fill="none">
  <path
    fill-rule="evenodd"
    clip-rule="evenodd"
    d="M7.7736 0.666809H20.2136C24.7469 0.666809 27.3336 3.22681 27.3336 7.77348V20.2268C27.3336 24.7468 24.7603 27.3335 20.2269 27.3335H7.7736C3.22693 27.3335 0.666931 24.7468 0.666931 20.2268V7.77348C0.666931 3.22681 3.22693 0.666809 7.7736 0.666809ZM15.0936 15.1068H18.8803C19.4936 15.0935 19.9869 14.6001 19.9869 13.9868C19.9869 13.3735 19.4936 12.8801 18.8803 12.8801H15.0936V9.12014C15.0936 8.50681 14.6003 8.01348 13.9869 8.01348C13.3736 8.01348 12.8803 8.50681 12.8803 9.12014V12.8801H9.10693C8.8136 12.8801 8.5336 13.0001 8.32027 13.2001C8.12027 13.4135 8.00027 13.6921 8.00027 13.9868C8.00027 14.6001 8.4936 15.0935 9.10693 15.1068H12.8803V18.8801C12.8803 19.4935 13.3736 19.9868 13.9869 19.9868C14.6003 19.9868 15.0936 19.4935 15.0936 18.8801V15.1068Z"
    fill="white"
  />
</svg>
