<svg xmlns="http://www.w3.org/2000/svg" width="36" height="36" viewBox="0 0 36 36" fill="none">
  <path
    fill-rule="evenodd"
    clip-rule="evenodd"
    d="M11.4993 33H24.4992C29.5847 33 33 29.4328 33 24.125V11.8751C33 6.56716 29.5847 3 24.5007 3H11.4993C6.41535 3 3 6.56716 3 11.8751V24.125C3 29.4328 6.41535 33 11.4993 33ZM12.7483 16.5C10.6803 16.5 9 14.8174 9 12.75C9 10.6826 10.6803 9 12.7483 9C14.8148 9 16.4965 10.6826 16.4965 12.75C16.4965 14.8174 14.8148 16.5 12.7483 16.5ZM29.7312 22.401C30.2336 23.6889 29.9725 25.2369 29.4355 26.5124C28.7991 28.0294 27.5803 29.178 26.0448 29.6796C25.363 29.9025 24.648 30 23.9346 30H11.293C10.035 30 8.92182 29.6982 8.00925 29.1362C7.43758 28.7834 7.33653 27.969 7.76037 27.4412C8.4693 26.5588 9.16918 25.6734 9.8751 24.7801C11.2206 23.0712 12.1271 22.5759 13.1347 23.0109C13.5434 23.1905 13.9537 23.4597 14.3761 23.7446C15.5013 24.5093 17.0655 25.5603 19.1259 24.4195C20.5359 23.6298 21.3537 22.2752 22.0659 21.0956L22.0778 21.0759C22.1283 20.9931 22.1782 20.9103 22.2281 20.8278C22.4674 20.4318 22.7036 20.041 22.9707 19.681C23.3057 19.2306 24.5469 17.822 26.1549 18.8252C27.1791 19.4566 28.0404 20.3112 28.962 21.226C29.3135 21.5758 29.5638 21.9736 29.7312 22.401Z"
    fill="#E4E4E4"
  />
</svg>
